<svg width="25" height="25" viewBox="0 0 25 25" fill="none" xmlns="http://www.w3.org/2000/svg">
<mask id="mask0_329_279" style="mask-type:alpha" maskUnits="userSpaceOnUse" x="0" y="0" width="25" height="25">
<rect x="0.0849609" y="0.209198" width="24" height="24" fill="#D9D9D9"/>
</mask>
<g mask="url(#mask0_329_279)">
<path d="M2.08496 24.2092V20.2092H22.085V24.2092H2.08496ZM6.08496 16.2092H7.48496L15.285 8.4342L13.86 7.0092L6.08496 14.8092V16.2092ZM4.08496 18.2092V13.9592L15.285 2.7842C15.4683 2.60086 15.6808 2.4592 15.9225 2.3592C16.1641 2.2592 16.4183 2.2092 16.685 2.2092C16.9516 2.2092 17.21 2.2592 17.46 2.3592C17.71 2.4592 17.935 2.6092 18.135 2.8092L19.51 4.2092C19.71 4.39253 19.8558 4.6092 19.9475 4.8592C20.0391 5.1092 20.085 5.36753 20.085 5.6342C20.085 5.8842 20.0391 6.13003 19.9475 6.3717C19.8558 6.61336 19.71 6.8342 19.51 7.0342L8.33496 18.2092H4.08496Z" fill="#0F172A"/>
</g>
</svg>
