<svg width="32" height="32" viewBox="0 0 32 32" fill="none" xmlns="http://www.w3.org/2000/svg">
<mask id="mask0_116_188" style="mask-type:alpha" maskUnits="userSpaceOnUse" x="0" y="0" width="32" height="32">
<rect width="32" height="32" fill="#D9D9D9"/>
</mask>
<g mask="url(#mask0_116_188)">
<path d="M15.9991 28L14.0658 26.2667C11.8213 24.2444 9.96577 22.5 8.49911 21.0333C7.03244 19.5666 5.86577 18.25 4.99911 17.0833C4.13244 15.9166 3.52688 14.8444 3.18244 13.8666C2.83799 12.8889 2.66577 11.8889 2.66577 10.8666C2.66577 8.77776 3.36577 7.03331 4.76577 5.63331C6.16577 4.23331 7.91022 3.53331 9.99911 3.53331C11.1547 3.53331 12.2547 3.77776 13.2991 4.26665C14.3436 4.75554 15.2436 5.44443 15.9991 6.33331C16.7547 5.44443 17.6547 4.75554 18.6991 4.26665C19.7436 3.77776 20.8436 3.53331 21.9991 3.53331C24.088 3.53331 25.8324 4.23331 27.2324 5.63331C28.6324 7.03331 29.3324 8.77776 29.3324 10.8666C29.3324 11.8889 29.1602 12.8889 28.8158 13.8666C28.4713 14.8444 27.8658 15.9166 26.9991 17.0833C26.1324 18.25 24.9658 19.5666 23.4991 21.0333C22.0324 22.5 20.1769 24.2444 17.9324 26.2667L15.9991 28ZM15.9991 24.4C18.1324 22.4889 19.888 20.85 21.2658 19.4833C22.6436 18.1166 23.7324 16.9278 24.5324 15.9166C25.3324 14.9055 25.888 14.0055 26.1991 13.2166C26.5102 12.4278 26.6658 11.6444 26.6658 10.8666C26.6658 9.53331 26.2213 8.4222 25.3324 7.53331C24.4436 6.64443 23.3324 6.19998 21.9991 6.19998C20.9547 6.19998 19.988 6.49443 19.0991 7.08331C18.2102 7.6722 17.5991 8.4222 17.2658 9.33331H14.7324C14.3991 8.4222 13.788 7.6722 12.8991 7.08331C12.0102 6.49443 11.0436 6.19998 9.99911 6.19998C8.66577 6.19998 7.55466 6.64443 6.66577 7.53331C5.77688 8.4222 5.33244 9.53331 5.33244 10.8666C5.33244 11.6444 5.48799 12.4278 5.79911 13.2166C6.11022 14.0055 6.66577 14.9055 7.46577 15.9166C8.26577 16.9278 9.35466 18.1166 10.7324 19.4833C12.1102 20.85 13.8658 22.4889 15.9991 24.4Z" fill="#189EA0"/>
</g>
</svg>
