<svg width="32" height="32" viewBox="0 0 32 32" fill="none" xmlns="http://www.w3.org/2000/svg">
<mask id="mask0_116_925" style="mask-type:alpha" maskUnits="userSpaceOnUse" x="0" y="0" width="32" height="32">
<rect width="32" height="32" fill="#D9D9D9"/>
</mask>
<g mask="url(#mask0_116_925)">
<path d="M5.33325 25.3333V22.6667H7.99992V13.3333C7.99992 11.4889 8.55547 9.85 9.66659 8.41667C10.7777 6.98333 12.2221 6.04445 13.9999 5.6V4.66667C13.9999 4.11111 14.1944 3.63889 14.5833 3.25C14.9721 2.86111 15.4444 2.66667 15.9999 2.66667C16.5555 2.66667 17.0277 2.86111 17.4166 3.25C17.8055 3.63889 17.9999 4.11111 17.9999 4.66667V5.6C19.7777 6.04445 21.2221 6.98333 22.3333 8.41667C23.4444 9.85 23.9999 11.4889 23.9999 13.3333V22.6667H26.6666V25.3333H5.33325ZM15.9999 29.3333C15.2666 29.3333 14.6388 29.0722 14.1166 28.55C13.5944 28.0278 13.3333 27.4 13.3333 26.6667H18.6666C18.6666 27.4 18.4055 28.0278 17.8833 28.55C17.361 29.0722 16.7333 29.3333 15.9999 29.3333ZM10.6666 22.6667H21.3333V13.3333C21.3333 11.8667 20.811 10.6111 19.7666 9.56667C18.7221 8.52222 17.4666 8 15.9999 8C14.5333 8 13.2777 8.52222 12.2333 9.56667C11.1888 10.6111 10.6666 11.8667 10.6666 13.3333V22.6667Z" fill="#189EA0"/>
</g>
</svg>
