<svg width="85" height="85" viewBox="0 0 85 85" fill="none" xmlns="http://www.w3.org/2000/svg">
<mask id="mask0_222_578" style="mask-type:alpha" maskUnits="userSpaceOnUse" x="0" y="0" width="85" height="85">
<rect width="85" height="85" rx="3" fill="#D9D9D9"/>
</mask>
<g mask="url(#mask0_222_578)">
<path d="M41.9583 74.375C40.3015 74.375 38.9583 73.0319 38.9583 71.375V49.0417C38.9583 47.3848 37.6152 46.0417 35.9583 46.0417H13.625C11.9681 46.0417 10.625 44.6985 10.625 43.0417V41.9583C10.625 40.3015 11.9681 38.9583 13.625 38.9583H35.9583C37.6152 38.9583 38.9583 37.6152 38.9583 35.9583V13.625C38.9583 11.9681 40.3015 10.625 41.9583 10.625H43.0417C44.6985 10.625 46.0417 11.9681 46.0417 13.625V35.9583C46.0417 37.6152 47.3848 38.9583 49.0417 38.9583H71.375C73.0319 38.9583 74.375 40.3015 74.375 41.9583V43.0417C74.375 44.6985 73.0319 46.0417 71.375 46.0417H49.0417C47.3848 46.0417 46.0417 47.3848 46.0417 49.0417V71.375C46.0417 73.0319 44.6985 74.375 43.0417 74.375H41.9583Z" fill="#4F46E5"/>
</g>
</svg>
