<svg width="67" height="67" viewBox="0 0 67 67" fill="none" xmlns="http://www.w3.org/2000/svg">
<mask id="mask0_222_591" style="mask-type:alpha" maskUnits="userSpaceOnUse" x="0" y="0" width="67" height="67">
<rect width="67" height="67" fill="#D9D9D9"/>
</mask>
<g mask="url(#mask0_222_591)">
<path d="M26.2415 46.0625L33.4998 38.8042L40.7582 46.0625L44.6665 42.1542L37.4082 34.8958L44.6665 27.6375L40.7582 23.7292L33.4998 30.9875L26.2415 23.7292L22.3332 27.6375L29.5915 34.8958L22.3332 42.1542L26.2415 46.0625ZM19.5415 58.625C18.0061 58.625 16.6917 58.0783 15.5983 56.9849C14.5049 55.8915 13.9582 54.5771 13.9582 53.0417V16.75H11.1665V11.1667H25.1248V8.375H41.8748V11.1667H55.8332V16.75H53.0415V53.0417C53.0415 54.5771 52.4948 55.8915 51.4014 56.9849C50.308 58.0783 48.9936 58.625 47.4582 58.625H19.5415ZM47.4582 16.75H19.5415V53.0417H47.4582V16.75Z" fill="#0F172A"/>
</g>
</svg>
